<svg id="Capa_1" data-name="Capa 1" xmlns="http://www.w3.org/2000/svg" width="180.62mm" height="180.62mm" viewBox="0 0 512 512"><defs><style>.cls-1{fill:#d04f4f;}</style></defs><circle class="cls-1" cx="409.01" cy="353.79" r="10"/><path class="cls-1" d="M504.26,96.11A98.36,98.36,0,0,0,413.59,36h0a98.08,98.08,0,0,0-46.82,11.85,134.93,134.93,0,0,0-211.23,6.41A98.23,98.23,0,0,0,98.43,36h0A98.42,98.42,0,0,0,93.9,232.74l19.34,270a10,10,0,0,0,10,9.3H398.4a10,10,0,0,0,10-9.3l7.4-103.28a10,10,0,0,0-9.26-10.7c-.24,0-.49,0-.73,0a10,10,0,0,0-10,9.29h0L392,451H332.26l2.32-33.11a10,10,0,1,0-19.95-1.4L312.21,451H209l-2.41-34.51a10,10,0,1,0-20,1.4L188.94,451H130l-.42,0L113.86,231.48a105.2,105.2,0,0,0,29.77-10.13,10,10,0,0,0-9.2-17.78,82,82,0,0,1-31.83,9.14c-1.44.07-2.84.11-4.19.11A78.4,78.4,0,1,1,144.82,71.27a120.44,120.44,0,0,0-8.42,18.34,10,10,0,0,0,6.11,12.77,10.17,10.17,0,0,0,3.32.57,10,10,0,0,0,9.43-6.69c2.36-6.69,11.68-23.22,11.87-23.63A114.9,114.9,0,0,1,355.65,66c.09.14,12.74,19.9,16.15,29.34a10,10,0,0,0,9.4,6.61,10,10,0,0,0,9.41-13.42,128.25,128.25,0,0,0-12-24.29,78.4,78.4,0,1,1,39.28,148.43H413c-13.24,0-25.68-3.42-38.06-10.44a10,10,0,0,0-9.86,17.41,96.9,96.9,0,0,0,42.58,12.88l-5.41,75.57a10,10,0,0,0,9.26,10.7q.36,0,.72,0h0a10,10,0,0,0,10-9.3l5.57-77.74A98.48,98.48,0,0,0,504.26,96.11ZM390.59,471l-1.5,21H132.52L131,471Z" transform="translate(0 0)"/></svg>